<?xml version="1.0" encoding="UTF-8"?><svg id="Layer_2" xmlns="http://www.w3.org/2000/svg" xmlns:xlink="http://www.w3.org/1999/xlink" viewBox="0 0 282.31 68.62"><defs><radialGradient id="radial-gradient" cx="20.2" cy="31.65" fx="20.2" fy="31.65" r="33.95" gradientUnits="userSpaceOnUse"><stop offset=".5" stop-color="#3f6c73"/><stop offset="1" stop-color="#4c9737"/></radialGradient></defs><g id="Layer_2-2"><path d="M40.22.41c-.22.04-.44.11-.66.18-1.4.46-2.81.93-4.21,1.39C24.18,5.64,13.02,9.29,1.85,12.95c-1.17.39-1.51,1.05-1.13,2.22.63,1.9,1.27,3.79,1.88,5.7.13.39.31.43.66.31.87-.31,1.76-.59,2.64-.88.46-.15.93-.16,1.37.09.51.3.81.76.77,1.36-.04.7-.45,1.18-1.08,1.43-.91.35-1.85.66-2.78.96-.35.11-.4.29-.28.61.21.59.42,1.19.6,1.8.1.35.27.44.62.31.9-.32,1.8-.63,2.71-.91.77-.23,1.41-.04,1.82.5.67.89.25,2.01-.94,2.46-.88.33-1.77.62-2.67.91-.3.1-.38.25-.27.54.16.44.29.89.45,1.34.34.97.34.95,1.3.65.93-.29,1.82-.72,2.64-.82.49,0,.79.06,1.05.25.49.35.73.81.65,1.42-.09.67-.51,1.1-1.11,1.32-.93.35-1.87.66-2.82.97-.28.09-.39.23-.28.53.22.62.43,1.24.62,1.87.11.35.27.42.62.3.89-.33,1.8-.62,2.71-.91.99-.3,1.84.09,2.11.92.27.84-.24,1.7-1.2,2.03-.88.3-1.75.61-2.63.89-.39.12-.45.31-.32.68.9,2.67,1.79,5.35,2.68,8.02,1.46,4.4,2.91,8.79,4.38,13.19.08.25.1.64.43.66.26.02.41-.28.51-.52.67-1.54,1.38-3.06,1.98-4.63,1.65-4.33,3.24-8.68,4.86-13.02,1.85-4.96,3.7-9.91,5.54-14.87,1.78-4.78,3.55-9.56,5.33-14.35,1.07-2.88,2.16-5.76,3.23-8.64.8-2.15,1.6-4.3,2.4-6.46.23-.61-.04-.92-.68-.79ZM25.7,18.01c-1.88,5.06-3.93,10.04-5.91,15.06-.19.48-.52.71-1.04.7-.39-.04-.72-.32-.87-.77-.6-1.77-1.2-3.54-1.75-5.32-.69-2.22-1.34-4.46-2-6.69-.21-.69.1-1.24.8-1.46,3.14-.98,6.28-1.97,9.42-2.95.44-.14.92-.24,1.29.14.39.39.23.84.06,1.28Z" style="fill:#444;"/><path d="M39.65.03c-.22.04-.44.11-.66.18-1.4.46-2.81.93-4.21,1.39C23.61,5.26,12.45,8.92,1.28,12.58c-1.17.39-1.51,1.05-1.13,2.22.63,1.9,1.27,3.79,1.88,5.7.13.39.31.43.66.31.87-.31,1.76-.59,2.64-.88.46-.15.93-.16,1.37.09.51.3.81.76.77,1.36-.04.7-.45,1.18-1.08,1.43-.91.35-1.85.66-2.78.96-.35.11-.4.29-.28.61.21.59.42,1.19.6,1.8.1.35.27.44.62.31.9-.32,1.8-.63,2.71-.91.77-.23,1.41-.04,1.82.5.67.89.25,2.01-.94,2.46-.88.33-1.77.62-2.67.91-.3.1-.38.25-.27.54.16.44.29.89.45,1.34.34.97.34.95,1.3.65.93-.29,1.82-.72,2.64-.82.49,0,.79.06,1.05.25.49.35.73.81.65,1.42-.09.67-.51,1.1-1.11,1.32-.93.35-1.87.66-2.82.97-.28.09-.39.23-.28.53.22.62.43,1.24.62,1.87.11.35.27.42.62.3.89-.33,1.8-.62,2.71-.91.99-.3,1.84.09,2.11.92.27.84-.24,1.7-1.2,2.03-.88.3-1.75.61-2.63.89-.39.12-.45.31-.32.68.9,2.67,1.79,5.35,2.68,8.02,1.46,4.4,2.91,8.79,4.38,13.19.08.25.1.64.43.66.26.02.41-.28.51-.52.67-1.54,1.38-3.06,1.98-4.63,1.65-4.33,3.24-8.68,4.86-13.02,1.85-4.96,3.7-9.91,5.54-14.87,1.78-4.78,3.55-9.56,5.33-14.35,1.07-2.88,2.16-5.76,3.23-8.64.8-2.15,1.6-4.3,2.4-6.46.23-.61-.04-.92-.68-.79ZM25.13,17.63c-1.88,5.06-3.93,10.04-5.91,15.06-.19.48-.52.71-1.04.7-.39-.04-.72-.32-.87-.77-.6-1.77-1.2-3.54-1.75-5.32-.69-2.22-1.34-4.46-2-6.69-.21-.69.1-1.24.8-1.46,3.14-.98,6.28-1.97,9.42-2.95.44-.14.92-.24,1.29.14.39.39.23.84.06,1.28Z" style="fill:url(#radial-gradient);"/><path d="M45.45,22.56l3.91,1.32h5.49c-.09-1.6-.14-3.23-.14-4.88l4.22.4c-.02.31-.24.59-.85.68-.02,1.25-.02,2.52.05,3.79h2.59l.8-1.01c-.17-.05-.33-.09-.5-.19-.33-1.08-1.25-2.26-2.05-2.92l.17-.14c4.19-.5,4.9,1.55,4.1,2.64.68.52,1.67,1.29,2.38,1.91-.07.26-.33.38-.68.38h-6.79c.14,2.17.45,4.29,1.08,6.2.61-1.48,1.06-2.97,1.39-4.41l4.31,1.46c-.09.28-.31.47-.92.45-.78,1.98-1.81,3.98-3.2,5.87.54.83,1.18,1.56,1.93,2.21.33.35.52.35.8-.05.42-.61,1.2-1.96,1.72-3.02l.21.07-.64,4.22c.92,1.67,1.06,2.59.57,3.02-1.37,1.2-3.65,0-4.74-1.06-.87-.85-1.6-1.77-2.24-2.76-1.91,1.79-4.33,3.32-7.4,4.36l-.17-.26c2.71-1.65,4.81-3.86,6.36-6.27-1.41-3.02-2.05-6.41-2.33-10.04h-6.03v3.67h2.12l1.58-1.51,2.71,2.26c-.17.19-.45.35-.92.42-.14,5.23-.42,6.86-1.56,7.7-.71.52-1.58.78-2.83.78,0-.92-.05-1.65-.33-2.07-.28-.42-.68-.71-1.41-.92v-.12c-.68,2.47-2.1,4.92-4.99,6.71l-.17-.17c2.21-3.68,2.38-8.39,2.38-12.39v-6.36ZM48.87,28.87v.05c0,1.7-.07,3.7-.59,5.68.47.05,1.3.07,1.67.07.31,0,.47-.05.61-.17.38-.35.54-1.96.64-5.63h-2.33Z" style="fill:#202121;"/><path d="M79.87,20.2c-.05,2.07-.07,4.08-.24,5.98h4.55l1.96-2.47s2.21,1.6,3.51,2.78c-.07.24-.35.35-.66.35h-9.24c.8,4.31,3.68,8.43,10.04,10.79l-.02.28c-1.74.35-2.76,1.48-3.04,3.46-4.95-3.18-6.64-8.95-7.26-13.67-.75,5.68-3.18,10.44-11.99,13.67l-.19-.31c6.41-4.12,8.13-8.81,8.6-14.23h-8.22l-.17-.66h8.43c.14-2.24.12-4.59.12-7.09l4.69.42c-.07.38-.31.59-.87.68Z" style="fill:#202121;"/><path d="M112.85,20.18c-.09.28-.38.47-.89.45-.87,1.04-2.21,2.52-3.53,3.72h1.37l1.48-2.03s1.67,1.37,2.66,2.31c-.07.26-.33.38-.66.38h-3.72v4.19h.21l1.44-1.98s1.6,1.34,2.54,2.26c-.07.26-.33.38-.66.38h-3.53v4.57h.24l1.53-2.12s1.72,1.44,2.71,2.4c-.07.26-.33.38-.66.38h-3.82v5.42c0,.19-.99.83-2.71.83h-.61v-6.24h-3.46l-.19-.66h3.65v-4.57h-3.04l-.19-.66h3.23v-4.19h-1.81c-.07.17-.26.24-.5.24h-2.05v4.55c-.02.16-1.58.73-2.62.73h-.54v-1.46h-2.24c-.24.87-.52,1.72-.87,2.57l1.37.5h1.77l1.44-1.53,2.9,2.19c-.14.17-.4.35-.83.45v6.67c-.02.19-1.65.75-2.71.75h-.57v-1.58h-2.31v1.2c0,.21-.9.87-2.43.87h-.54v-6.34c-.61.78-1.32,1.51-2.17,2.19l-.28-.31c1.46-2.45,2.17-5.04,2.54-7.63h-1.88l-.21-.66h2.17c.12-1.06.19-2.12.24-3.16h-2.62l-.19-.66h2.83l.02-3.02h-1.93l-.21-.66h6.48l1.41-1.55,2.92,2.21c-.14.19-.45.42-.94.52v1.86l.73-1.22s.82.85,1.48,1.63h3.82c.35-1.6.66-3.86.83-5.4l4.12,1.22ZM98.71,25.24h-1.6c-.09,1.06-.26,2.12-.5,3.16h2.1v-3.16ZM96.66,32.78v5.63h2.31v-5.63h-2.31ZM97.32,21.57c-.02.99-.07,2-.14,3.02h1.53v-3.02h-1.39ZM104.37,23.24c.19-1.39-.12-2.92-.57-4.03l.21-.09c6.08,2,2.64,6.57.35,4.12Z" style="fill:#202121;"/><path d="M119.63,20.6h2.14l1.04-1.32,2.52,1.77c-.19.24-.47.38-1.08.47v4.74l.42-.42,1.32,1.3v-6.53l2.71,1.04h.45v-2.54l2.14.24c-.02.21-.17.38-.5.45v1.86h.71v-2.54l2.26.24c-.05.26-.19.42-.61.5v1.81h.59l1.18-1.37,2.36,1.77c-.17.21-.38.35-.9.45v5.63c0,.07-.21.21-.61.33.49.4,1.22.97,1.77,1.41-.07.26-.31.38-.64.38h-2.76l2.5,1.84c-.14.21-.35.33-.87.42v3.35c0,.12-.73.47-2,.54l1.96.61c-.09.28-.38.47-.89.42-.61.61-1.56,1.44-2.45,2.14h1.88l1.39-1.77s1.58,1.2,2.54,2.05c-.07.26-.31.38-.66.38h-12.84l-.19-.66h4.36c-.28-.05-.59-.19-.87-.45,0-.8-.24-1.65-.52-2.38l-.5.02h-.5v-6.22l2.97,1.13h3.37l1.27-1.44h-8.41l-.19-.66h8.32l.75-.89h-.75v-.42h-5.37v.28c0,.17-.75.59-2.03.59h-.42v-1.25l-.31.02c-.35.4-.92,1.01-1.34,1.41l.99.75c-.17.19-.52.4-.99.5v7.7c0,1.7-.33,2.62-2.87,2.85-.05-.75-.12-1.34-.35-1.7-.24-.35-.57-.61-1.34-.75v-.35s1.39.09,1.74.09c.31,0,.38-.12.38-.4v-2.83l-1.06,1.51c-.07.28-.26.54-.52.64l-.75-1.56c-.31,1.98-1.23,4.03-3.84,5.49l-.21-.21c1.55-2.17,1.63-4.95,1.63-7.52v-3.89l-.14.19c-.47.38-1.44.28-1.74-.47-.24-.71.17-1.3.78-1.65.31-.35.5-1.25.17-1.81l.38-.02c.19.35.35.68.47,1.01h.21v-7.26l2.38.97ZM121.66,29.46l1.13-1.3,1.01.75.05-1.37h-6.6c.09.33.14.64.14.92l2.71.99h1.56ZM121.78,23.19h.26v-1.93h-2.64v5.63h.52v-4.5l1.86.8ZM119.7,33.54l-.02,1.11,2.21-.73v-.85c-.28.24-.71.38-1.22.21-.21-.35-.59-.75-.97-1.06v1.32ZM119.7,31.37c1.13-.24,1.84-.05,2.19.26v-1.51h-2.19v1.25ZM122.04,26.89v-3.04h-.59v3.04h.59ZM128.44,22.3v2.33h.71v-2.33h-.71ZM129.15,25.29h-.71v2.31h.71v-2.31ZM132.92,35.61h-3.7v.54c0,.07-.12.17-.33.26,2.38,1.13,1.7,2.97.45,3.16h2.24c.33-1.11.68-2.57.9-3.6l.45.14v-.5ZM132.92,34.95v-2.62h-3.7v2.62h3.7ZM130.8,22.3v2.33h.71v-2.33h-.71ZM131.51,25.29h-.71v2.31h.71v-2.31ZM133.16,24.63h.66v-2.33h-.66v2.33ZM133.81,27.6v-2.31h-.66v2.31h.66Z" style="fill:#202121;"/><path d="M145.38,20.74l-.24.8h1.77l1.18-1.18,2.31,2.07-.21-.64h2.36v-2.64l3.56.35c-.05.28-.21.52-.75.59v1.7h1.13l1.2-1.25,2.43,1.84c-.12.14-.38.31-.75.38v2.1l.9-1.62s1.06,1.2,1.6,1.96c-.07.26-.28.38-.59.38h-1.91v3.11c-.02.16-1.34.66-2.19.66h-.47v-.59h-1.34v2.47h1.51l1.23-1.74s1.39,1.2,2.17,2.03c-.05.26-.28.38-.61.38h-4.29v2.33h2.24l1.27-1.86s1.44,1.3,2.26,2.14c-.05.26-.28.38-.61.38h-5.16v1.86c0,.26-1.22.9-2.26.9h-.54v-2.76h-2.54l-.19-.66h2.73v-2.33h-1.93l-.19-.66h2.12v-2.47h-1.7l-.21-.66h1.91v-2.52h-3.44l-.19-.66h3.63v-2.45h-2.12c-.19.19-.52.31-.94.38-.52,1.55-1.48,4.24-2.19,5.98h.09l1.39-1.48,2.59,2.12c-.14.26-.35.33-.85.42-.21,2.31-.64,4.57-1.67,6.6,1.01.61,2.24.97,3.7,1.15,1.11.14,2.33.19,3.7.19,1.25,0,4.26,0,5.7-.05v.28c-1.06.26-1.6,1.44-1.62,2.73h-4.26c-3.82,0-6.5-.57-8.32-2.54-.94,1.2-2.17,2.26-3.79,3.11l-.19-.28c1.34-1.25,2.21-2.78,2.8-4.5-.75-1.39-1.29-3.21-1.65-5.58l.21-.09c.5,1.72,1.11,3.02,1.88,4.01.38-1.74.54-3.58.61-5.42h-.42l-.82.87-2.24-1.37v11.54c-.02.21-1.32.83-2.5.83h-.57v-11.66c-.57.73-1.15,1.37-1.81,1.98l-.28-.17c1.37-3.2,2.64-8.06,3.11-12.53l4.26,1.27c-.12.31-.4.5-.97.5ZM144.13,26.8v2.03c.19-.14.45-.28.71-.4.73-1.7,1.7-4.5,2.19-6.22h-1.93l-.09-.26c-.45,1.39-.97,2.69-1.53,3.89l1.41.52c-.09.21-.31.38-.75.45ZM156.69,22.46h-1.34v2.45h1.34v-2.45ZM155.35,25.57v2.52h1.34v-2.52h-1.34Z" style="fill:#202121;"/><path d="M185.62,22.37c-.07.26-.33.38-.66.38h-16.84v5.63c0,4.05-.19,9.4-4.74,12.89l-.21-.14c1.74-3.75,1.79-8.55,1.79-12.75v-7.54l3.65,1.25h6.22c-.28-.07-.57-.24-.85-.45.05-.97-.33-1.96-.73-2.54l.14-.09c4.85-.02,4.31,2.57,2.61,3.09h5.23l1.58-2.17s1.77,1.46,2.8,2.45ZM173.74,35.4l.07.21c-.94.94-2.5,2.43-4.74,4.26-.09.33-.33.59-.61.68l-1.58-3.39c1.15-.24,4.05-.99,6.86-1.77ZM185.71,28.21c-.07.26-.31.38-.61.38h-2.31v2.52c0,.17-.54.52-1.22.78l2.07,1.86c-.12.19-.38.24-.87.07-1.18.5-3.75,1.08-5.28,1.46l-.17-.21c.75-.75,1.79-1.93,2.59-2.9h-.35v-.66h-2.38v6.31c0,2.17-.47,3.25-3.82,3.51-.05-.97-.12-1.7-.4-2.14-.26-.42-.59-.78-1.58-.97v-.28s1.65.09,2.03.09c.31,0,.4-.07.4-.28v-6.24h-4.41l-.21-.66h4.62v-2.26h-5.28l-.19-.66h5.47v-2.24h-4.45l-.21-.66h4.67v-2.19l4.19.38c-.02.35-.26.57-.82.66v1.15h2.19l1.37-1.39,2.69,2c-.09.14-.31.28-.64.35v1.7l.94-1.34s1.25,1.11,1.98,1.86ZM170.82,35.3c-.45-1.13-1.53-2.38-2.43-3.06l.14-.14c6.74-1.04,5.28,4.48,2.29,3.2ZM179.56,27.93v-2.24h-2.38v2.24h2.38ZM177.18,30.85h2.38v-2.26h-2.38v2.26ZM182.13,40.27c-1.08-1.53-3.25-3.35-4.92-4.31l.17-.19c8.58-.54,7.99,5.42,4.76,4.5Z" style="fill:#202121;"/><path d="M201.4,23.29c.17-1.41.28-2.87.33-4.26l4.22.9c-.07.31-.35.52-.9.57-.28,1.37-.64,2.66-1.04,3.89h1.55l1.58-2.17s1.79,1.46,2.85,2.45c-.07.26-.33.38-.66.38h-1.08c-.24,3.84-.82,7.37-2.54,10.3,1.15,1.27,2.57,2.31,4.31,3.11l-.07.24c-1.51.35-2.38,1.25-2.76,2.73-1.34-.99-2.38-2.29-3.18-3.82-1.44,1.55-3.37,2.85-5.96,3.82l-.14-.21c2.43-1.74,4.03-3.82,5.09-6.1-.57-1.77-.94-3.77-1.2-5.98-.5.78-1.04,1.51-1.63,2.14l-.31-.14c.61-2,1.13-4.57,1.46-7.23-.07.02-.17.05-.26.05h-1.86v2.26c-.02.17-1.41.68-2.29.68h-.5v-.47h-.97v1.62h1.08l1.18-1.2,2.43,1.77c-.09.14-.31.28-.64.35v2.4c-.02.17-1.41.66-2.29.66h-.5v-.64h-5.32v.19l3.7.54c-.07.28-.24.54-.99.64l-.42,1.2h1.86c.09-.66.12-1.32.09-2l4.05.71c-.07.35-.35.57-.92.57l-.12.73h.52l.97-1.6s1.13,1.13,1.74,1.88c-.07.26-.28.38-.61.38h-2.78c-.26.99-.68,1.91-1.37,2.76,3.11,1.32,1.3,4.05-.59,3.42-.52-.45-1.25-.92-2.07-1.37-1.65.85-3.93,1.51-7.07,1.98l-.12-.31c2.5-.66,4.26-1.51,5.54-2.47-1.15-.52-2.36-.94-3.37-1.2l-.28-.07c.33-.66.71-1.7,1.08-2.73h-2.73l-.19-.66h3.13l.59-1.88c-.35.21-1.01.42-1.86.42h-.5v-5.56l.24.09v-3.09h-1.46l-.19-.66h1.65v-3.39l3.02,1.13h.61v-2.05l3.65.31c-.05.33-.19.49-.75.59v1.15h.78l1.18-1.23,2.45,1.81c-.09.12-.33.26-.66.33v1.25l.82-1.2s.78.71,1.37,1.32ZM192.59,26.4h-.94v.12c0,.19-.75.71-2,.75l2.03.75h.92v-1.62ZM192.73,28.68h-1.32v2.03h1.32v-2.03ZM192.75,21.66h-1.11v1.6h1.11v-1.6ZM191.65,23.92v1.81h1.11v-1.81h-1.11ZM193.46,34.6l-.83,2.05c.73,0,1.37.02,1.93.09.42-.68.71-1.39.87-2.14h-1.98ZM196.43,23.26v-1.6h-1.15v1.6h1.15ZM195.27,25.74h1.15v-1.81h-1.15v1.81ZM196.73,30.71v-2.03h-1.41v2.03h1.41ZM202.32,28.28c.38,1.65.87,3.11,1.55,4.41.68-2.4.92-4.97.97-7.66h-1.06c-.42,1.18-.92,2.26-1.46,3.25Z" style="fill:#202121;"/><path d="M219.25,23.9v-1.84l3.39,1.18h1.25v-4.26l3.89.31c-.02.31-.19.52-.75.61v1.37h2.1l1.39-1.81s1.55,1.25,2.5,2.1c-.07.26-.31.38-.64.38h-.71l2.38,2.26c-.19.19-.42.24-.9.26-.75.24-2.03.57-2.83.71l.45.35c-.05.26-.26.4-.59.42l-3.39.24v.33c0,.24.05.33.52.33h1.27c.42,0,.89-.02,1.13-.02.17,0,.47-.02.61-.05.14-.02.45-.07.61-.12h.24l.12.02c.66.31.87.52.87.97,0,.57-.28.92-.99,1.13l2.05,1.63c-.07.26-.33.38-.66.38h-4.85c-.5.49-1.08.97-1.77,1.37.73.47,1.32,1.04,1.79,1.65.82-.94,1.6-2.14,1.96-2.97l3.46,1.81c-.09.24-.31.38-.85.33-.71.47-1.72.9-2.78,1.23.89,1.55,2.57,2.69,4.43,3.11v.26c-.99.28-1.65,1.15-1.91,2.57-1.7-1.25-2.54-3.09-3.04-5.79l-.78.19c1.32,2.21,1.2,4.74.33,5.87-.54.68-1.7.89-3.27.89-.05-.78-.19-1.27-.52-1.62-.26-.26-.94-.54-1.7-.75v-.17c-.78.26-1.58.45-2.38.59l-.09-.31c2.17-.97,4.26-2.64,5.68-4.43v-.05c-1.27.75-2.92,1.39-4.43,1.74l-.14-.31c1.44-.75,2.87-2.17,3.7-3.51l-.02-.02c-.99.52-2.14.92-3.35,1.25l-.12-.24c-.47,2.78-1.74,5.58-4.99,7.61l-.21-.19c2.36-3.35,2.54-7.61,2.54-11.59v-.8c-.61.5-1.37,1.08-2.26,1.77v7.3c0,2.19-.42,3.42-3.56,3.7-.05-1.06-.14-1.86-.4-2.38-.26-.52-.66-.85-1.55-1.06v-.31s1.62.09,2.05.09c.31,0,.4-.12.4-.35v-4.85l-1.01.68c-.09.33-.35.61-.66.71l-1.06-3.63c.57-.12,1.53-.35,2.73-.66v-4.19h-2.43l-.19-.66h2.62v-5.65l3.91.38c-.05.35-.28.57-.85.66v4.62l1.13-1.98,1.13,1.25ZM219.25,25.29h-2.26v3.37l2.26-.64v-2.73ZM224.51,30.76h-2.33c-.02.82-.09,1.65-.24,2.5,1.08-.66,1.96-1.55,2.57-2.5ZM224.13,23.9h-1.93v1.93l1.93-.14v-1.79ZM222.41,26.47l-.21-.57v4.19h7.09l.97-1.18c-.54.05-1.2.07-2.03.07h-1.7c-2.1,0-2.4-.49-2.4-2.07v-.57l-1.72.12ZM223.28,38.65c.8.05,1.98.12,2.4.12.26,0,.42-.02.52-.19.17-.28.31-.8.33-1.46-.94.59-2.07,1.11-3.25,1.53ZM226.79,24.65v.85l1.04-.07.94-1.41,1.34.97.17-1.08h-5.23l2.43.19c-.02.31-.26.52-.68.57ZM231.43,21.92h-4.41v1.32h3.09l1.32-1.32Z" style="fill:#202121;"/><path d="M248.35,20.11v4.19h4.26l1.55-1.72,3.23,2.45c-.14.19-.42.42-.92.52v7.59c-.02.19-1.84.8-3.02.8h-.64v-1.98h-4.48v8.15c0,.35-1.58,1.25-2.97,1.25h-.68v-9.4h-4.43v1.23c0,.35-1.6,1.15-3.09,1.15h-.52v-11.5l3.86,1.46h4.17v-5.3l4.52.42c-.05.33-.21.59-.87.68ZM244.7,31.3v-6.34h-4.43v6.34h4.43ZM252.82,24.96h-4.48v6.34h4.48v-6.34Z" style="fill:#202121;"/><path d="M263,35.14c-.85,1.32-2.4,1.32-3.23.4-.68-.82-.49-1.84.24-2.57,1.15-1.04,2.38-3.79,2.31-6.93l.26-.02c2.14,4.36,1.67,7.37.42,9.12ZM268.56,24.32v11.73c0,.57.31.73,1.2.73h2.66c.8,0,1.53-.02,1.98-.05.4-.02.66-.12.87-.4.38-.52.87-1.77,1.48-3.51h.24l.09,3.65c.99.4,1.27.8,1.27,1.46,0,1.55-1.34,2.31-6.29,2.31h-2.83c-3.06,0-4.1-.52-4.1-3.13v-13.83l4.24.4c-.02.31-.24.57-.82.64ZM271.95,26.12c-.4-2.31-1.72-4.81-3.11-6.6l.19-.14c9.12,2.33,6.34,9.35,2.92,6.74ZM278.36,35.59c-.02-2.43-.52-6.1-2.33-8.81l.19-.17c9.8,5.44,4.71,12.56,2.14,8.98Z" style="fill:#202121;"/><path d="M50.45,53.69c0,.51-.08.98-.25,1.39-.17.41-.41.77-.73,1.06-.32.29-.7.52-1.16.68s-1,.24-1.64.24h-1.17v3.7s-.01.08-.04.11c-.02.03-.06.06-.11.08-.05.02-.12.03-.21.05-.09.01-.2.02-.33.02s-.24,0-.33-.02c-.09-.01-.16-.03-.21-.05s-.09-.04-.11-.08c-.02-.03-.03-.07-.03-.11v-9.49c0-.21.06-.36.17-.45s.24-.13.37-.13h2.2c.22,0,.44,0,.64.03s.45.06.72.12c.28.06.56.17.85.34.29.17.53.37.73.62.2.24.36.53.46.85.11.32.16.67.16,1.06ZM49.01,53.8c0-.42-.08-.77-.23-1.05-.16-.28-.35-.49-.58-.63s-.47-.23-.71-.26-.49-.06-.72-.06h-1.26v4.12h1.23c.41,0,.76-.05,1.03-.16.27-.11.5-.25.69-.44.18-.19.33-.41.42-.67.09-.26.14-.55.14-.85Z" style="fill:#212222;"/><path d="M58.62,57.11c0,.58-.08,1.12-.23,1.61-.15.49-.38.91-.69,1.27-.3.36-.69.63-1.14.83-.46.2-.99.3-1.59.3s-1.1-.09-1.54-.26c-.44-.17-.8-.43-1.09-.76-.29-.33-.51-.74-.65-1.22-.14-.48-.21-1.02-.21-1.62s.08-1.12.23-1.61c.15-.49.38-.91.68-1.27.3-.36.68-.63,1.14-.83.46-.2.99-.29,1.6-.29s1.1.09,1.54.26c.44.17.8.43,1.09.76.29.33.51.74.66,1.22.15.48.22,1.01.22,1.61ZM57.26,57.2c0-.39-.04-.75-.11-1.1-.07-.34-.19-.65-.36-.91-.17-.26-.39-.46-.67-.62-.28-.15-.64-.23-1.06-.23-.39,0-.73.07-1.01.21-.28.14-.51.33-.69.58s-.32.55-.41.89c-.09.34-.13.72-.13,1.13s.04.76.11,1.1c.07.34.19.65.36.9.17.26.39.46.68.61.28.15.64.23,1.06.23.38,0,.72-.07,1-.21.28-.14.52-.33.7-.58s.32-.55.4-.89c.09-.34.13-.72.13-1.14Z" style="fill:#212222;"/><path d="M67.03,57.08c0,.62-.07,1.19-.2,1.68-.14.5-.33.92-.6,1.27-.26.35-.59.61-.97.8-.39.19-.83.28-1.33.28-.21,0-.41-.02-.59-.06-.18-.04-.36-.11-.53-.2s-.34-.2-.51-.34-.35-.3-.54-.48v3.58s-.01.08-.03.11c-.02.03-.06.06-.1.08-.05.02-.11.04-.2.05s-.19.02-.33.02-.23,0-.32-.02-.15-.03-.2-.05c-.05-.02-.08-.05-.1-.08-.02-.03-.03-.07-.03-.11v-9.99s0-.09.02-.12c.02-.03.05-.05.1-.08.05-.02.11-.04.18-.04.07,0,.16-.01.27-.01s.2,0,.27.01c.07,0,.13.02.18.04.05.02.08.05.1.08.02.03.03.07.03.12v.96c.22-.22.43-.42.63-.58s.4-.3.61-.41c.2-.11.41-.19.63-.25.21-.06.44-.08.68-.08.52,0,.96.1,1.33.3.37.2.66.48.89.83s.4.76.5,1.22c.11.46.16.96.16,1.47ZM65.67,57.23c0-.37-.03-.72-.08-1.06-.06-.34-.15-.65-.29-.91s-.32-.48-.55-.64-.51-.24-.86-.24c-.17,0-.34.03-.5.08-.17.05-.33.13-.5.24-.17.11-.35.25-.54.43s-.38.4-.59.66v2.84c.36.44.71.78,1.03,1.01s.67.35,1.02.35c.33,0,.61-.08.85-.24s.43-.37.58-.64c.15-.26.25-.56.32-.89.07-.33.1-.66.1-.99Z" style="fill:#212222;"/><path d="M75.03,60.76s0,.08-.03.11c-.02.03-.05.05-.1.08-.05.02-.11.04-.19.05-.08,0-.17.02-.28.02-.12,0-.22,0-.3-.02-.08-.01-.14-.03-.18-.05-.05-.02-.08-.05-.09-.08-.02-.03-.02-.06-.02-.11v-.95c-.41.45-.81.78-1.21.99-.4.21-.8.31-1.21.31-.48,0-.88-.08-1.2-.24-.33-.16-.59-.37-.79-.65-.2-.27-.35-.59-.43-.95-.09-.36-.13-.8-.13-1.32v-4.34s0-.08.03-.11.05-.06.11-.08c.05-.02.12-.04.21-.05.08,0,.19-.01.32-.01s.23,0,.32.01c.08,0,.15.02.2.05.05.02.09.05.11.08.02.03.03.06.03.11v4.16c0,.42.03.75.09,1,.06.25.15.47.28.64.12.18.28.32.47.41.19.1.41.15.67.15.33,0,.66-.12.98-.35.33-.23.67-.58,1.04-1.03v-5s0-.08.03-.11.05-.06.11-.08c.05-.02.12-.04.2-.05.08,0,.19-.01.32-.01s.23,0,.32.01c.08,0,.15.02.2.05.05.02.08.05.11.08.02.03.04.06.04.11v7.15Z" style="fill:#212222;"/><path d="M78.67,60.76s-.01.08-.03.11c-.02.03-.06.05-.1.08-.05.02-.11.04-.2.05-.08,0-.19.02-.33.02s-.23,0-.32-.02c-.08-.01-.15-.03-.2-.05-.05-.02-.08-.05-.1-.08-.02-.03-.03-.06-.03-.11v-10.62s0-.08.03-.11c.02-.03.05-.06.1-.08.05-.02.12-.04.2-.05.08,0,.19-.02.32-.02s.24,0,.33.02c.08.01.15.03.2.05.05.02.08.05.1.08.02.03.03.07.03.11v10.62Z" style="fill:#212222;"/><path d="M86.38,60.77c0,.06-.02.11-.06.14-.04.03-.1.06-.17.07-.07.02-.18.02-.33.02s-.25,0-.33-.02c-.08-.02-.14-.04-.18-.07-.04-.03-.06-.08-.06-.14v-.72c-.31.33-.66.59-1.04.78-.38.19-.79.28-1.22.28-.38,0-.72-.05-1.02-.15s-.56-.24-.78-.42c-.21-.19-.38-.41-.5-.68s-.18-.58-.18-.92c0-.4.08-.75.25-1.05s.4-.54.71-.74c.31-.2.68-.34,1.13-.44.44-.1.95-.15,1.5-.15h.99v-.56c0-.28-.03-.52-.09-.73-.06-.21-.15-.39-.28-.53-.13-.14-.3-.25-.5-.32-.21-.07-.46-.11-.76-.11-.32,0-.61.04-.87.12-.26.08-.48.16-.67.25s-.36.18-.49.25c-.13.08-.23.12-.29.12-.04,0-.08-.01-.11-.03-.03-.02-.06-.05-.08-.1-.02-.04-.04-.1-.05-.16-.01-.07-.02-.14-.02-.22,0-.13,0-.24.03-.31.02-.08.06-.15.14-.22.07-.07.19-.15.37-.24.17-.09.38-.18.6-.25.23-.08.48-.14.75-.19.27-.05.54-.08.82-.08.51,0,.95.06,1.31.17.36.12.65.29.87.51.22.23.38.5.49.84s.15.72.15,1.17v4.82ZM85.08,57.51h-1.12c-.36,0-.67.03-.94.09-.26.06-.48.15-.66.27s-.3.26-.39.43-.12.36-.12.58c0,.37.12.67.35.89s.57.33.99.33c.34,0,.66-.09.96-.26s.6-.44.93-.8v-1.52Z" style="fill:#212222;"/><path d="M94.77,53.41c.16,0,.27.04.33.11.06.07.09.18.09.31v6.94s-.01.08-.03.11c-.02.03-.06.05-.11.08-.05.02-.12.04-.2.05-.08,0-.19.02-.31.02-.13,0-.24,0-.33-.02-.08-.01-.15-.03-.2-.05-.05-.02-.09-.05-.11-.08-.02-.03-.03-.06-.03-.11v-6.27h-3.7v3.99c0,.49.07.87.22,1.12.15.25.41.38.78.38.12,0,.23-.01.33-.04.1-.02.18-.05.25-.08s.14-.05.19-.08c.05-.02.1-.04.14-.04.03,0,.05,0,.08.02.02.01.04.04.06.08.01.04.02.09.04.15s.02.14.02.24c0,.15-.01.27-.03.36-.02.09-.05.15-.1.2-.04.04-.11.09-.19.12s-.18.07-.29.09c-.11.02-.22.04-.35.06s-.24.02-.37.02c-.37,0-.69-.05-.95-.15-.26-.1-.48-.25-.65-.45-.17-.2-.29-.45-.37-.75-.08-.3-.12-.66-.12-1.08v-4.18h-1c-.08,0-.14-.04-.19-.13-.05-.08-.07-.22-.07-.41,0-.1,0-.18.02-.25.01-.07.03-.13.05-.17.02-.04.05-.08.08-.1.03-.02.07-.03.12-.03h.99v-1.7s0-.07.03-.1c.02-.03.05-.06.1-.08.05-.02.12-.04.2-.05.08,0,.19-.02.32-.02s.24,0,.33.02c.08.01.15.03.2.05.05.02.08.05.1.08.02.03.03.07.03.1v1.7h4.6ZM95.33,51.2c0,.31-.06.52-.17.63-.12.11-.33.17-.64.17s-.52-.05-.63-.16c-.11-.11-.17-.31-.17-.62s.06-.52.17-.63c.12-.11.33-.17.64-.17s.52.05.63.16c.11.11.17.31.17.62Z" style="fill:#212222;"/><path d="M104.17,57.11c0,.58-.08,1.12-.23,1.61-.15.49-.38.91-.69,1.27-.3.36-.69.63-1.14.83-.46.2-.99.3-1.59.3s-1.1-.09-1.54-.26c-.44-.17-.8-.43-1.09-.76-.29-.33-.51-.74-.65-1.22-.14-.48-.21-1.02-.21-1.62s.08-1.12.23-1.61c.15-.49.38-.91.68-1.27.3-.36.68-.63,1.14-.83.46-.2.99-.29,1.6-.29s1.1.09,1.54.26c.44.17.8.43,1.09.76.29.33.51.74.66,1.22.15.48.22,1.01.22,1.61ZM102.81,57.2c0-.39-.04-.75-.11-1.1-.07-.34-.19-.65-.36-.91-.17-.26-.39-.46-.67-.62-.28-.15-.64-.23-1.06-.23-.39,0-.73.07-1.01.21-.28.14-.51.33-.69.58s-.32.55-.41.89c-.09.34-.13.72-.13,1.13s.04.76.11,1.1c.07.34.19.65.36.9.17.26.39.46.68.61.28.15.64.23,1.06.23.38,0,.72-.07,1-.21.28-.14.52-.33.7-.58s.32-.55.4-.89c.09-.34.13-.72.13-1.14Z" style="fill:#212222;"/><path d="M112.16,60.76s-.01.08-.03.11c-.02.03-.06.05-.1.08-.05.02-.11.04-.2.05-.08,0-.19.02-.32.02s-.24,0-.33-.02c-.08-.01-.15-.03-.2-.05-.05-.02-.08-.05-.1-.08-.02-.03-.03-.06-.03-.11v-4.19c0-.41-.03-.74-.1-.99-.06-.25-.16-.46-.28-.64-.12-.18-.28-.32-.47-.41-.19-.1-.42-.14-.67-.14-.33,0-.66.12-.99.35-.33.23-.67.58-1.03,1.03v5s-.01.08-.03.11c-.02.03-.06.05-.1.08-.05.02-.11.04-.2.05-.08,0-.19.02-.33.02s-.23,0-.32-.02c-.08-.01-.15-.03-.2-.05-.05-.02-.08-.05-.1-.08-.02-.03-.03-.06-.03-.11v-7.15s0-.08.02-.11c.02-.03.05-.06.1-.08.05-.02.11-.04.18-.05.07,0,.17-.01.29-.01s.21,0,.29.01c.08,0,.14.02.18.05.04.02.07.05.09.08s.03.06.03.11v.95c.4-.45.8-.78,1.2-.99.4-.21.8-.31,1.21-.31.48,0,.88.08,1.2.24.33.16.59.38.79.65.2.27.35.59.43.95.09.36.13.8.13,1.31v4.36Z" style="fill:#212222;"/><path d="M125.59,60.76s-.01.08-.03.11c-.02.03-.06.06-.11.08-.05.02-.12.03-.21.05-.09.01-.19.02-.32.02-.14,0-.25,0-.33-.02-.08-.01-.15-.03-.21-.05s-.09-.04-.11-.08c-.02-.03-.03-.07-.03-.11v-4.56h-4.68v4.56s-.01.08-.03.11c-.02.03-.06.06-.11.08s-.12.03-.21.05c-.09.01-.2.02-.33.02s-.24,0-.33-.02c-.09-.01-.16-.03-.21-.05s-.09-.04-.11-.08c-.02-.03-.03-.07-.03-.11v-9.87s.01-.08.03-.11c.02-.03.06-.06.11-.08s.12-.03.21-.05c.09-.01.2-.02.33-.02s.24,0,.33.02c.09.01.16.03.21.05s.09.04.11.08c.02.03.03.07.03.11v4.12h4.68v-4.12s0-.08.03-.11c.02-.03.06-.06.11-.08s.12-.03.21-.05c.08-.01.2-.02.33-.02.13,0,.23,0,.32.02.09.01.16.03.21.05.05.02.09.04.11.08.02.03.03.07.03.11v9.87Z" style="fill:#212222;"/><path d="M134.18,56.88c0,.21-.05.35-.16.44-.1.09-.22.13-.35.13h-4.71c0,.4.04.75.12,1.07.08.32.21.59.4.82s.43.4.73.52.66.18,1.09.18c.34,0,.64-.03.91-.08.27-.06.5-.12.69-.19.19-.07.35-.13.48-.19.12-.06.22-.08.28-.08.04,0,.07,0,.1.03s.05.05.07.08c.02.04.03.09.04.15,0,.07.01.15.01.24,0,.07,0,.13,0,.18,0,.05-.01.09-.02.13s-.02.08-.04.11c-.02.03-.04.06-.07.09-.03.03-.12.08-.26.14-.14.07-.33.13-.56.19s-.49.12-.79.17c-.3.05-.62.08-.96.08-.59,0-1.1-.08-1.55-.25s-.81-.41-1.12-.73c-.3-.32-.53-.73-.68-1.22-.15-.49-.23-1.05-.23-1.7s.08-1.17.24-1.66c.16-.49.39-.91.69-1.25.3-.34.66-.6,1.08-.79s.9-.27,1.42-.27c.56,0,1.04.09,1.43.27.39.18.72.42.97.73s.44.66.56,1.07c.12.41.18.85.18,1.32v.24ZM132.86,56.49c.02-.69-.14-1.23-.46-1.62-.32-.39-.8-.59-1.43-.59-.33,0-.61.06-.86.18-.25.12-.45.28-.62.49s-.29.44-.38.7-.14.55-.15.84h3.9Z" style="fill:#212222;"/><path d="M141.47,60.77c0,.06-.02.11-.06.14-.04.03-.1.06-.17.07-.07.02-.18.02-.33.02s-.25,0-.33-.02c-.08-.02-.14-.04-.18-.07-.04-.03-.06-.08-.06-.14v-.72c-.31.33-.66.59-1.04.78-.38.19-.79.28-1.22.28-.38,0-.72-.05-1.02-.15s-.56-.24-.78-.42c-.21-.19-.38-.41-.5-.68s-.18-.58-.18-.92c0-.4.08-.75.25-1.05s.4-.54.71-.74c.31-.2.68-.34,1.13-.44.44-.1.95-.15,1.5-.15h.99v-.56c0-.28-.03-.52-.09-.73-.06-.21-.15-.39-.28-.53-.13-.14-.3-.25-.5-.32-.21-.07-.46-.11-.76-.11-.32,0-.61.04-.87.12-.26.08-.48.16-.67.25s-.36.18-.49.25c-.13.08-.23.12-.29.12-.04,0-.08-.01-.11-.03-.03-.02-.06-.05-.08-.1-.02-.04-.04-.1-.05-.16-.01-.07-.02-.14-.02-.22,0-.13,0-.24.03-.31.02-.08.06-.15.14-.22.07-.07.19-.15.37-.24.17-.09.38-.18.6-.25.23-.08.48-.14.75-.19.27-.05.54-.08.82-.08.51,0,.95.06,1.31.17.36.12.65.29.87.51.22.23.38.5.49.84s.15.72.15,1.17v4.82ZM140.16,57.51h-1.12c-.36,0-.67.03-.94.09-.26.06-.48.15-.66.27s-.3.26-.39.43-.12.36-.12.58c0,.37.12.67.35.89s.57.33.99.33c.34,0,.66-.09.96-.26s.6-.44.93-.8v-1.52Z" style="fill:#212222;"/><path d="M145.09,60.76s-.01.08-.03.11c-.02.03-.06.05-.1.08-.05.02-.11.04-.2.05-.08,0-.19.02-.33.02s-.23,0-.32-.02c-.08-.01-.15-.03-.2-.05-.05-.02-.08-.05-.1-.08-.02-.03-.03-.06-.03-.11v-10.62s0-.08.03-.11c.02-.03.05-.06.1-.08.05-.02.12-.04.2-.05.08,0,.19-.02.32-.02s.24,0,.33.02c.08.01.15.03.2.05.05.02.08.05.1.08.02.03.03.07.03.11v10.62Z" style="fill:#212222;"/><path d="M151.13,60.24c0,.15-.01.28-.03.37s-.05.16-.1.2c-.04.04-.11.08-.19.12s-.18.07-.29.09c-.11.02-.22.04-.35.06s-.24.02-.37.02c-.37,0-.69-.05-.95-.15-.26-.1-.48-.25-.65-.45-.17-.2-.29-.45-.37-.75-.08-.3-.12-.66-.12-1.08v-4.18h-1c-.08,0-.14-.04-.19-.13-.05-.08-.07-.22-.07-.41,0-.1,0-.18.02-.25.01-.07.03-.13.05-.17.02-.04.05-.08.08-.1.03-.02.07-.03.12-.03h.99v-1.7s0-.07.03-.1c.02-.03.05-.06.1-.08.05-.02.12-.04.2-.05.08,0,.19-.02.32-.02s.24,0,.33.02c.08.01.15.03.2.05.05.02.08.05.1.08.02.03.03.07.03.1v1.7h1.84s.08,0,.11.03c.03.02.06.05.08.1.02.04.04.1.05.17.01.07.02.15.02.25,0,.19-.02.33-.07.41-.05.08-.11.13-.19.13h-1.84v3.99c0,.49.07.87.22,1.12.15.25.41.38.78.38.12,0,.23-.01.33-.04.1-.02.18-.05.25-.08s.14-.05.19-.08c.05-.02.1-.04.14-.04.03,0,.05,0,.08.02.02.01.04.04.06.08.01.04.02.09.04.15s.02.14.02.24Z" style="fill:#212222;"/><path d="M158.93,60.76s-.01.08-.03.11c-.02.03-.06.05-.1.08-.05.02-.11.04-.2.05-.08,0-.19.02-.32.02s-.24,0-.33-.02c-.08-.01-.15-.03-.2-.05-.05-.02-.08-.05-.1-.08-.02-.03-.03-.06-.03-.11v-4.19c0-.41-.03-.74-.1-.99-.06-.25-.16-.46-.28-.64-.12-.18-.28-.32-.47-.41-.19-.1-.42-.14-.67-.14-.33,0-.66.12-.99.35-.33.23-.67.58-1.03,1.03v5s-.01.08-.03.11c-.02.03-.06.05-.1.08-.05.02-.11.04-.2.05-.08,0-.19.02-.33.02s-.23,0-.32-.02c-.08-.01-.15-.03-.2-.05-.05-.02-.08-.05-.1-.08-.02-.03-.03-.06-.03-.11v-10.62s0-.08.03-.11c.02-.03.05-.06.1-.08.05-.02.12-.04.2-.05.08,0,.19-.02.32-.02s.24,0,.33.02c.08.01.15.03.2.05.05.02.08.05.1.08.02.03.03.07.03.11v4.28c.38-.4.75-.69,1.14-.89.38-.19.76-.29,1.15-.29.48,0,.88.08,1.2.24.33.16.59.38.79.65.2.27.35.59.43.95.09.36.13.8.13,1.32v4.36Z" style="fill:#212222;"/><path d="M172.86,55.67c0,.89-.11,1.67-.34,2.33s-.56,1.22-1,1.65-.97.76-1.61.98c-.64.22-1.39.33-2.27.33h-2.18c-.12,0-.24-.04-.35-.12-.11-.08-.16-.23-.16-.43v-9.17c0-.21.05-.35.16-.43.11-.08.22-.12.35-.12h2.33c.89,0,1.64.12,2.26.35s1.13.56,1.55.99.73.96.95,1.57c.21.62.32,1.31.32,2.08ZM171.42,55.73c0-.56-.07-1.07-.21-1.55s-.35-.89-.65-1.24-.67-.62-1.12-.82c-.45-.2-1.03-.29-1.74-.29h-1.39v8h1.41c.66,0,1.21-.08,1.66-.25.45-.16.83-.42,1.13-.75s.53-.76.68-1.28c.15-.51.23-1.12.23-1.82Z" style="fill:#212222;"/><path d="M180.11,60.77c0,.06-.02.11-.06.14-.04.03-.1.06-.17.07-.07.02-.18.02-.33.02s-.25,0-.33-.02c-.08-.02-.14-.04-.18-.07-.04-.03-.06-.08-.06-.14v-.72c-.31.33-.66.59-1.04.78-.38.19-.79.28-1.22.28-.38,0-.72-.05-1.02-.15s-.56-.24-.78-.42c-.21-.19-.38-.41-.5-.68s-.18-.58-.18-.92c0-.4.08-.75.25-1.05s.4-.54.71-.74c.31-.2.68-.34,1.13-.44.44-.1.95-.15,1.5-.15h.99v-.56c0-.28-.03-.52-.09-.73-.06-.21-.15-.39-.28-.53-.13-.14-.3-.25-.5-.32-.21-.07-.46-.11-.76-.11-.32,0-.61.04-.87.12-.26.08-.48.16-.67.25s-.36.18-.49.25c-.13.08-.23.12-.29.12-.04,0-.08-.01-.11-.03-.03-.02-.06-.05-.08-.1-.02-.04-.04-.1-.05-.16-.01-.07-.02-.14-.02-.22,0-.13,0-.24.03-.31.02-.08.06-.15.14-.22.07-.07.19-.15.37-.24.17-.09.38-.18.6-.25.23-.08.48-.14.75-.19.27-.05.54-.08.82-.08.51,0,.95.06,1.31.17.36.12.65.29.87.51.22.23.38.5.49.84s.15.72.15,1.17v4.82ZM178.8,57.51h-1.12c-.36,0-.67.03-.94.09-.26.06-.48.15-.66.27s-.3.26-.39.43-.12.36-.12.58c0,.37.12.67.35.89s.57.33.99.33c.34,0,.66-.09.96-.26s.6-.44.93-.8v-1.52Z" style="fill:#212222;"/><path d="M185.99,60.24c0,.15-.01.28-.03.37s-.05.16-.1.2c-.04.04-.11.08-.19.12s-.18.07-.29.09c-.11.02-.22.04-.35.06s-.24.02-.37.02c-.37,0-.69-.05-.95-.15-.26-.1-.48-.25-.65-.45-.17-.2-.29-.45-.37-.75-.08-.3-.12-.66-.12-1.08v-4.18h-1c-.08,0-.14-.04-.19-.13-.05-.08-.07-.22-.07-.41,0-.1,0-.18.02-.25.01-.07.03-.13.05-.17.02-.04.05-.08.08-.1.03-.02.07-.03.12-.03h.99v-1.7s0-.07.03-.1c.02-.03.05-.06.1-.08.05-.02.12-.04.2-.05.08,0,.19-.02.32-.02s.24,0,.33.02c.08.01.15.03.2.05.05.02.08.05.1.08.02.03.03.07.03.1v1.7h1.84s.08,0,.11.03c.03.02.06.05.08.1.02.04.04.1.05.17.01.07.02.15.02.25,0,.19-.02.33-.07.41-.05.08-.11.13-.19.13h-1.84v3.99c0,.49.07.87.22,1.12.15.25.41.38.78.38.12,0,.23-.01.33-.04.1-.02.18-.05.25-.08s.14-.05.19-.08c.05-.02.1-.04.14-.04.03,0,.05,0,.08.02.02.01.04.04.06.08.01.04.02.09.04.15s.02.14.02.24Z" style="fill:#212222;"/><path d="M192.81,60.77c0,.06-.02.11-.06.14-.04.03-.1.06-.17.07-.07.02-.18.02-.33.02s-.25,0-.33-.02c-.08-.02-.14-.04-.18-.07-.04-.03-.06-.08-.06-.14v-.72c-.31.33-.66.59-1.04.78-.38.19-.79.28-1.22.28-.38,0-.72-.05-1.02-.15s-.56-.24-.78-.42c-.21-.19-.38-.41-.5-.68s-.18-.58-.18-.92c0-.4.08-.75.25-1.05s.4-.54.71-.74c.31-.2.68-.34,1.13-.44.44-.1.95-.15,1.5-.15h.99v-.56c0-.28-.03-.52-.09-.73-.06-.21-.15-.39-.28-.53-.13-.14-.3-.25-.5-.32-.21-.07-.46-.11-.76-.11-.32,0-.61.04-.87.12-.26.08-.48.16-.67.25s-.36.18-.49.25c-.13.08-.23.12-.29.12-.04,0-.08-.01-.11-.03-.03-.02-.06-.05-.08-.1-.02-.04-.04-.1-.05-.16-.01-.07-.02-.14-.02-.22,0-.13,0-.24.03-.31.02-.08.06-.15.14-.22.07-.07.19-.15.37-.24.17-.09.38-.18.6-.25.23-.08.48-.14.75-.19.27-.05.54-.08.82-.08.51,0,.95.06,1.31.17.36.12.65.29.87.51.22.23.38.5.49.84s.15.72.15,1.17v4.82ZM191.51,57.51h-1.12c-.36,0-.67.03-.94.09-.26.06-.48.15-.66.27s-.3.26-.39.43-.12.36-.12.58c0,.37.12.67.35.89s.57.33.99.33c.34,0,.66-.09.96-.26s.6-.44.93-.8v-1.52Z" style="fill:#212222;"/><path d="M205.72,59.51c0,.08,0,.16,0,.22,0,.06-.01.12-.03.17-.01.05-.03.09-.05.13s-.06.08-.11.13-.16.13-.33.24c-.17.11-.38.21-.63.32-.25.1-.54.19-.87.26-.33.07-.68.11-1.07.11-.67,0-1.27-.11-1.81-.33-.54-.22-1-.55-1.38-.99-.38-.43-.67-.97-.87-1.61-.2-.64-.31-1.37-.31-2.21s.11-1.61.33-2.28c.22-.67.53-1.23.93-1.7.4-.46.87-.82,1.43-1.06.55-.24,1.17-.37,1.84-.37.3,0,.58.03.87.08.28.06.54.13.78.21.24.08.45.18.64.29s.31.2.39.27c.07.07.12.13.14.16.02.04.04.08.05.13.01.05.02.11.03.18,0,.07.01.15.01.25,0,.11,0,.2-.02.27s-.03.14-.05.19c-.02.05-.05.09-.08.11-.03.02-.07.04-.11.04-.07,0-.18-.05-.31-.15-.13-.1-.3-.22-.51-.34-.21-.12-.47-.24-.77-.34s-.66-.16-1.08-.16c-.46,0-.88.09-1.25.27-.38.18-.7.45-.96.81-.27.35-.47.79-.62,1.3-.15.51-.22,1.1-.22,1.75s.07,1.23.21,1.73c.14.5.34.92.61,1.26.26.34.59.59.97.76s.82.26,1.3.26c.41,0,.77-.05,1.07-.15.31-.1.57-.21.78-.34.22-.12.39-.24.53-.34.14-.1.25-.15.33-.15.04,0,.07,0,.1.02.03.02.05.05.06.09.02.04.03.11.04.19,0,.08.01.18.01.3Z" style="fill:#212222;"/><path d="M213.39,56.88c0,.21-.05.35-.16.44-.1.09-.22.13-.35.13h-4.71c0,.4.04.75.12,1.07.08.32.21.59.4.82s.43.4.73.52.66.18,1.09.18c.34,0,.64-.03.91-.08.27-.06.5-.12.69-.19.19-.07.35-.13.48-.19.12-.06.22-.08.28-.08.04,0,.07,0,.1.03s.05.05.07.08c.02.04.03.09.04.15,0,.07.01.15.01.24,0,.07,0,.13,0,.18,0,.05-.01.09-.02.13s-.02.08-.04.11c-.02.03-.04.06-.07.09-.03.03-.12.08-.26.14-.14.07-.33.13-.56.19s-.49.12-.79.17c-.3.05-.62.08-.96.08-.59,0-1.1-.08-1.55-.25s-.81-.41-1.12-.73c-.3-.32-.53-.73-.68-1.22-.15-.49-.23-1.05-.23-1.7s.08-1.17.24-1.66c.16-.49.39-.91.69-1.25.3-.34.66-.6,1.08-.79s.9-.27,1.42-.27c.56,0,1.04.09,1.43.27.39.18.72.42.97.73s.44.66.56,1.07c.12.41.18.85.18,1.32v.24ZM212.07,56.49c.02-.69-.14-1.23-.46-1.62-.32-.39-.8-.59-1.43-.59-.33,0-.61.06-.86.18-.25.12-.45.28-.62.49s-.29.44-.38.7-.14.55-.15.84h3.9Z" style="fill:#212222;"/><path d="M221.44,60.76s-.01.08-.03.11c-.02.03-.06.05-.1.08-.05.02-.11.04-.2.05-.08,0-.19.02-.32.02s-.24,0-.33-.02c-.08-.01-.15-.03-.2-.05-.05-.02-.08-.05-.1-.08-.02-.03-.03-.06-.03-.11v-4.19c0-.41-.03-.74-.1-.99-.06-.25-.16-.46-.28-.64-.12-.18-.28-.32-.47-.41-.19-.1-.42-.14-.67-.14-.33,0-.66.12-.99.35-.33.23-.67.58-1.03,1.03v5s-.01.08-.03.11c-.02.03-.06.05-.1.08-.05.02-.11.04-.2.05-.08,0-.19.02-.33.02s-.23,0-.32-.02c-.08-.01-.15-.03-.2-.05-.05-.02-.08-.05-.1-.08-.02-.03-.03-.06-.03-.11v-7.15s0-.08.02-.11c.02-.03.05-.06.1-.08.05-.02.11-.04.18-.05.07,0,.17-.01.29-.01s.21,0,.29.01c.08,0,.14.02.18.05.04.02.07.05.09.08s.03.06.03.11v.95c.4-.45.8-.78,1.2-.99.4-.21.8-.31,1.21-.31.48,0,.88.08,1.2.24.33.16.59.38.79.65.2.27.35.59.43.95.09.36.13.8.13,1.31v4.36Z" style="fill:#212222;"/><path d="M227.3,60.24c0,.15-.01.28-.03.37s-.05.16-.1.2c-.04.04-.11.08-.19.12s-.18.07-.29.09c-.11.02-.22.04-.35.06s-.24.02-.37.02c-.37,0-.69-.05-.95-.15-.26-.1-.48-.25-.65-.45-.17-.2-.29-.45-.37-.75-.08-.3-.12-.66-.12-1.08v-4.18h-1c-.08,0-.14-.04-.19-.13-.05-.08-.07-.22-.07-.41,0-.1,0-.18.02-.25.01-.07.03-.13.05-.17.02-.04.05-.08.08-.1.03-.02.07-.03.12-.03h.99v-1.7s0-.07.03-.1c.02-.03.05-.06.1-.08.05-.02.12-.04.2-.05.08,0,.19-.02.32-.02s.24,0,.33.02c.08.01.15.03.2.05.05.02.08.05.1.08.02.03.03.07.03.1v1.7h1.84s.08,0,.11.03c.03.02.06.05.08.1.02.04.04.1.05.17.01.07.02.15.02.25,0,.19-.02.33-.07.41-.05.08-.11.13-.19.13h-1.84v3.99c0,.49.07.87.22,1.12.15.25.41.38.78.38.12,0,.23-.01.33-.04.1-.02.18-.05.25-.08s.14-.05.19-.08c.05-.02.1-.04.14-.04.03,0,.05,0,.08.02.02.01.04.04.06.08.01.04.02.09.04.15s.02.14.02.24Z" style="fill:#212222;"/><path d="M234.87,56.88c0,.21-.05.35-.16.44-.1.09-.22.13-.35.13h-4.71c0,.4.04.75.12,1.07.08.32.21.59.4.82s.43.4.73.52.66.18,1.09.18c.34,0,.64-.03.91-.08.27-.06.5-.12.69-.19.19-.07.35-.13.48-.19.12-.06.22-.08.28-.08.04,0,.07,0,.1.03s.05.05.07.08c.02.04.03.09.04.15,0,.07.01.15.01.24,0,.07,0,.13,0,.18,0,.05-.01.09-.02.13s-.02.08-.04.11c-.02.03-.04.06-.07.09-.03.03-.12.08-.26.14-.14.07-.33.13-.56.19s-.49.12-.79.17c-.3.05-.62.08-.96.08-.59,0-1.1-.08-1.55-.25s-.81-.41-1.12-.73c-.3-.32-.53-.73-.68-1.22-.15-.49-.23-1.05-.23-1.7s.08-1.17.24-1.66c.16-.49.39-.91.69-1.25.3-.34.66-.6,1.08-.79s.9-.27,1.42-.27c.56,0,1.04.09,1.43.27.39.18.72.42.97.73s.44.66.56,1.07c.12.41.18.85.18,1.32v.24ZM233.55,56.49c.02-.69-.14-1.23-.46-1.62-.32-.39-.8-.59-1.43-.59-.33,0-.61.06-.86.18-.25.12-.45.28-.62.49s-.29.44-.38.7-.14.55-.15.84h3.9Z" style="fill:#212222;"/><path d="M240.95,54.08c0,.12,0,.21,0,.29,0,.08-.02.14-.03.19s-.04.08-.06.1c-.02.02-.06.04-.1.04s-.09-.01-.16-.04c-.06-.02-.13-.05-.21-.07-.08-.02-.16-.05-.26-.07-.09-.02-.2-.03-.31-.03-.13,0-.26.03-.39.08-.13.05-.26.14-.4.26s-.29.28-.44.48c-.15.2-.32.45-.51.74v4.71s-.01.08-.03.11c-.02.03-.06.05-.1.08-.05.02-.11.04-.2.05-.08,0-.19.02-.33.02s-.23,0-.32-.02c-.08-.01-.15-.03-.2-.05-.05-.02-.08-.05-.1-.08-.02-.03-.03-.06-.03-.11v-7.15s0-.08.02-.11c.02-.03.05-.06.1-.08.05-.02.11-.04.18-.05.07,0,.17-.01.29-.01s.21,0,.29.01c.08,0,.14.02.18.05.04.02.07.05.09.08s.03.06.03.11v1.04c.2-.29.38-.52.55-.7.17-.18.33-.32.49-.42.15-.1.31-.17.46-.21.15-.04.3-.06.46-.06.07,0,.15,0,.23.01.09,0,.18.02.27.04.1.02.18.04.26.07.08.03.13.05.16.08.03.03.05.05.06.08.01.02.02.05.03.09s.01.09.02.16c0,.07,0,.17,0,.29Z" style="fill:#212222;"/><path d="M253.85,60.4c0,.11-.02.2-.05.27-.04.07-.08.13-.14.18s-.12.08-.19.1c-.07.02-.14.03-.21.03h-.45c-.14,0-.27-.01-.37-.04-.11-.03-.21-.08-.3-.16s-.19-.18-.29-.31c-.1-.13-.2-.3-.3-.51l-3.14-5.85c-.16-.3-.33-.62-.5-.95-.17-.33-.32-.65-.46-.97h-.02c.01.38.02.77.02,1.17,0,.4,0,.79,0,1.18v6.21s-.01.07-.03.11c-.02.04-.06.06-.11.08-.05.02-.12.03-.21.05-.09.01-.2.02-.33.02s-.24,0-.33-.02c-.09-.01-.16-.03-.21-.05-.05-.02-.09-.04-.11-.08-.02-.03-.03-.07-.03-.11v-9.49c0-.21.06-.36.18-.45.12-.09.25-.13.39-.13h.67c.16,0,.29.01.4.04.11.03.2.07.29.13.08.06.17.15.25.25.08.11.16.25.25.41l2.41,4.51c.15.28.29.54.43.81.14.26.27.52.4.78.13.25.25.5.38.75.12.25.25.49.37.74h0c-.01-.42-.02-.85-.02-1.31,0-.45,0-.89,0-1.31v-5.58s.01-.07.03-.1c.02-.03.06-.06.11-.08.05-.02.12-.04.21-.05.09-.01.2-.02.34-.02.12,0,.23,0,.32.02.09.01.16.03.21.05.05.02.09.05.11.08.02.03.03.07.03.1v9.49Z" style="fill:#212222;"/><path d="M263.35,59.51c0,.08,0,.16,0,.22,0,.06-.01.12-.03.17-.01.05-.03.09-.05.13s-.06.08-.11.13-.16.13-.33.24c-.17.11-.38.21-.63.32-.25.1-.54.19-.87.26-.33.07-.68.11-1.07.11-.67,0-1.27-.11-1.81-.33-.54-.22-1-.55-1.38-.99-.38-.43-.67-.97-.87-1.61-.2-.64-.31-1.37-.31-2.21s.11-1.61.33-2.28c.22-.67.53-1.23.93-1.7.4-.46.87-.82,1.43-1.06.55-.24,1.17-.37,1.84-.37.3,0,.58.03.87.08.28.06.54.13.78.21.24.08.45.18.64.29s.31.2.39.27c.07.07.12.13.14.16.02.04.04.08.05.13.01.05.02.11.03.18,0,.07.01.15.01.25,0,.11,0,.2-.02.27s-.03.14-.05.19c-.02.05-.05.09-.08.11-.03.02-.07.04-.11.04-.07,0-.18-.05-.31-.15-.13-.1-.3-.22-.51-.34-.21-.12-.47-.24-.77-.34s-.66-.16-1.08-.16c-.46,0-.88.09-1.25.27-.38.18-.7.45-.96.81-.27.35-.47.79-.62,1.3-.15.51-.22,1.1-.22,1.75s.07,1.23.21,1.73c.14.5.34.92.61,1.26.26.34.59.59.97.76s.82.26,1.3.26c.41,0,.77-.05,1.07-.15.31-.1.57-.21.78-.34.22-.12.39-.24.53-.34.14-.1.25-.15.33-.15.04,0,.07,0,.1.02.03.02.05.05.06.09.02.04.03.11.04.19,0,.08.01.18.01.3Z" style="fill:#212222;"/><path d="M271.77,60.74s0,.08-.03.12c-.02.03-.05.06-.11.08-.05.02-.12.04-.21.05-.09.01-.21.02-.35.02-.19,0-.34,0-.45-.02-.12-.02-.2-.04-.26-.09-.06-.04-.11-.09-.14-.14l-3.78-5.14v5.14s-.01.07-.03.11c-.02.04-.06.06-.11.08s-.12.03-.21.05c-.09.01-.2.02-.33.02s-.24,0-.33-.02c-.09-.01-.16-.03-.21-.05s-.09-.04-.11-.08c-.02-.03-.03-.07-.03-.11v-9.87s.01-.08.03-.11c.02-.03.06-.06.11-.08s.12-.03.21-.05c.09-.01.2-.02.33-.02s.24,0,.33.02c.09.01.16.03.21.05s.09.04.11.08c.02.03.03.07.03.11v4.57l3.64-4.57s.07-.09.11-.12c.04-.03.09-.06.16-.08s.13-.03.22-.04c.09-.01.2-.02.34-.02s.25,0,.33.02c.08.01.15.03.2.05.05.02.08.05.1.08.02.03.03.07.03.1,0,.07-.02.14-.05.21-.04.07-.1.16-.2.29l-3.41,4.08,3.67,4.88c.09.14.14.23.16.28.02.05.03.09.03.12Z" style="fill:#212222;"/><path d="M280.92,57.16c0,.62-.09,1.18-.27,1.67s-.44.91-.78,1.24c-.34.34-.75.6-1.24.77s-1.04.26-1.66.26c-.57,0-1.08-.08-1.55-.25-.47-.16-.87-.41-1.2-.73-.33-.32-.59-.72-.77-1.2s-.27-1.04-.27-1.67v-6.38s.01-.08.03-.11c.02-.03.06-.06.11-.08s.12-.03.21-.05c.08-.01.2-.02.33-.02.13,0,.24,0,.33.02.09.01.16.03.21.05.05.02.09.04.11.08.02.03.03.07.03.11v6.21c0,.48.06.89.17,1.25.12.35.29.65.5.89s.48.41.79.53c.31.12.66.18,1.04.18s.75-.06,1.06-.17c.31-.12.57-.29.79-.52.21-.23.38-.52.49-.87.11-.34.17-.75.17-1.21v-6.29s.01-.08.03-.11c.02-.03.06-.06.11-.08.05-.02.12-.03.21-.05.09-.01.2-.02.33-.02s.23,0,.32.02c.09.01.16.03.21.05.05.02.09.04.11.08.02.03.04.07.04.11v6.28Z" style="fill:#212222;"/></g></svg>